<svg xmlns="http://www.w3.org/2000/svg" viewBox="0 0 760 520" role="img" aria-label="SAP ABAP one month learning map">
<rect width="760" height="520" rx="18" fill="#fffef9"/>
<rect x="42" y="42" width="676" height="436" rx="10" fill="#f8faf5" stroke="#d7ded4" stroke-width="2"/>
<g fill="none" stroke="#d7ded4" stroke-width="1.5">
  <path d="M92 150h576M92 250h576M92 350h576"/>
  <path d="M190 100v310M380 100v310M570 100v310"/>
</g>
<g font-family="Segoe UI, Noto Sans, sans-serif" fill="#18201c">
  <text x="74" y="86" font-size="28" font-weight="750">SAP ABAP Engineering Handbook</text>
  <text x="74" y="114" font-size="14" fill="#637168">System foundation · Core ABAP · CDS/RAP/OData · Project delivery</text>
</g>
<g>
  <circle cx="190" cy="150" r="38" fill="#1b6d58"/>
  <circle cx="380" cy="250" r="38" fill="#124d3e"/>
  <circle cx="570" cy="350" r="38" fill="#1b6d58"/>
  <circle cx="380" cy="150" r="26" fill="#dcefe6" stroke="#1b6d58" stroke-width="2"/>
  <circle cx="570" cy="250" r="26" fill="#dcefe6" stroke="#1b6d58" stroke-width="2"/>
  <circle cx="190" cy="350" r="26" fill="#dcefe6" stroke="#1b6d58" stroke-width="2"/>
</g>
<g font-family="Segoe UI, Noto Sans, sans-serif" text-anchor="middle">
  <text x="190" y="158" font-size="22" font-weight="800" fill="#fffef9">01</text>
  <text x="380" y="258" font-size="22" font-weight="800" fill="#fffef9">03</text>
  <text x="570" y="358" font-size="22" font-weight="800" fill="#fffef9">04</text>
  <text x="380" y="156" font-size="16" font-weight="700" fill="#18201c">ABAP</text>
  <text x="570" y="256" font-size="16" font-weight="700" fill="#18201c">OData</text>
  <text x="190" y="356" font-size="16" font-weight="700" fill="#18201c">Ready</text>
</g>
<g font-family="Segoe UI, Noto Sans, sans-serif" fill="#637168" font-size="14">
  <text x="74" y="438">179 expanded-review atomic notes</text>
  <text x="74" y="462">28-day learning path · 4 chapters · offline-first HTML</text>
</g>
</svg>